<svg width="840" height="487" viewBox="0 0 840 487" fill="none" xmlns="http://www.w3.org/2000/svg">
<path d="M577.489 291.722H735.171L735.038 437.616L577.687 437.678L577.489 291.722ZM630.334 340.496L630.136 388.844L682.325 389.025L682.523 340.677L630.334 340.493V340.496ZM104.834 291.721H262.516L262.384 437.615L105.032 437.677L104.834 291.721ZM157.679 340.495L157.482 388.843L209.67 389.024L209.868 340.676L157.679 340.492V340.495ZM524.838 48.59L577.42 48.7117L577.484 97.3015L525.361 96.9367L524.838 48.59ZM52.5751 48.6508L105.023 48.6579L104.565 96.9375L52.3104 97.3631L52.5751 48.6508ZM105.091 0L524.899 0.183647L524.838 48.59L367.679 48.8967L367.745 145.653L577.286 145.532L577.484 97.3015L629.868 97.3682L630.393 145.716L787.418 146.142L787.943 194.306L840 194.792L839.804 340.322H787.748L787.223 292.035L735.166 291.731L734.772 243.323L577.814 243.566L577.486 291.73L525.363 292.095L524.903 340.321H315.1L314.574 292.034L262.518 291.73L262.124 243.321L105.165 243.564L104.837 291.729L52.714 292.094L52.255 340.38L0 340.259V97.3095L52.3104 97.3631L52.7146 145.658L314.695 145.599V48.7202L105.023 48.6579L105.086 0.00704209L105.091 0Z" fill="#00F0FF"/>
<path d="M105.023 48.6579L104.565 96.9375L52.3104 97.3631L52.7146 145.658L314.695 145.599V48.7202L105.023 48.6579Z" fill="#4D9196"/>
<path d="M577.484 97.3015L525.361 96.9367L524.838 48.59L367.679 48.8967L367.745 145.653L577.286 145.532L577.484 97.3015Z" fill="#4D9196"/>
<path d="M577.732 437.686L735.084 437.624L734.953 486.275L577.73 486.094V437.685L577.732 437.686ZM105.078 437.686L262.43 437.624L262.298 486.275L105.076 486.094V437.685L105.078 437.686ZM630.382 340.504L682.571 340.688L682.373 389.036L630.185 388.855L630.382 340.507V340.504ZM157.728 340.504L209.917 340.688L209.719 389.036L157.531 388.855L157.728 340.507V340.504ZM735.219 291.731L787.276 292.035L787.801 340.322L787.538 437.626H735.088L735.219 291.731ZM525.415 292.096L577.537 291.731L577.732 437.686L525.219 437.564L524.957 340.321L525.415 292.096ZM262.579 291.731L314.636 292.035L315.161 340.322L314.898 437.626H262.448L262.579 291.731ZM52.7746 292.096L104.897 291.731L105.095 437.686L52.5796 437.564L52.3167 340.382L52.7746 292.096ZM577.884 243.565L734.843 243.322L735.236 291.731H577.555L577.884 243.565ZM105.23 243.565L262.189 243.322L262.582 291.731H104.9L105.23 243.565Z" fill="black"/>
</svg>
