<?xml version="1.0" encoding="UTF-8" standalone="no"?>
<svg id="svg2" xmlns:rdf="http://www.w3.org/1999/02/22-rdf-syntax-ns#" xmlns="http://www.w3.org/2000/svg" height="127.48mm" width="285.26mm" version="1.1" xmlns:cc="http://creativecommons.org/ns#" xmlns:dc="http://purl.org/dc/elements/1.1/" viewBox="0 0 1010.78 451.69662">
<g id="layer1" transform="translate(1472.3 432.93)">
<g id="g4142">
<path id="path4190" d="m-1450.7-432.88h967.7v21.451l-171.98 0.14989 0.14883 128.78 171.76-0.0751 0.0744-128.86 21.448 0.0751v322.44l-21.373 0.22501-0.14883 21.301h-128.93l-0.14883-42.676-21.151-0.52504-0.3749-21.076-21.151-0.37504-0.37526-21.226-85.653 0.0751-0.37526 21.151-21.151 0.37501-0.3749 21.151-21.226 0.37501-0.0744 42.751h-387.09l-0.1488-42.676-21.226-0.52504-0.3749-21.076-21.076-0.37501-0.3753-21.226-85.654 0.0751-0.3752 21.151-21.151 0.37501-0.3749 21.151-21.226 0.37504-0.1489 42.751-107.4-0.07512-0.2233-21.301-21.301-0.22501v-322.36h21.451l0.1488 128.86h107.26v-128.86h-107.4l0.074-21.526m129.08 21.526-0.074 128.93h107.4v-128.93h-107.33m129.01 0v128.93h107.33l0.074-128.93h-107.4m129.08 0-0.074 128.93h107.4v-128.93h-107.33m129.01 0v128.93h107.33l0.0744-128.93h-107.4m129.08 0-0.0744 128.93h107.33l0.0744-128.93z" fill="#f93145"/>
<path id="path4204" d="m-654.96-411.28 171.98-0.14989-0.0744 128.86-171.76 0.0751-0.14882-128.78zm-150.46-0.0751h107.33l-0.0744 128.93h-107.33zm-129.08 0h107.4l-0.0744 128.93h-107.33v-128.93zm-129.01 0h107.33v128.93h-107.4l0.074-128.93zm-129.08 0h107.4l-0.074 128.93h-107.33v-128.93zm-129.01 0h107.4l-0.074 128.93h-107.4l0.074-128.93zm-129.16 0h107.4v128.86h-107.26l-0.1489-128.86z" fill="#0ff"/>
<path id="path4212" d="m-719.39-131.81 42.827 0.0751 0.14883 21.301 21.301 0.22501 0.22324 21.3 21.301 0.22501v42.752l-21.376 0.22501-0.14883 21.301-21.301 0.22501-0.22678 21.301h-42.827l-0.22324-21.376-21.225-0.22501-0.22324-21.226-21.376-0.22501 0.0744-42.827 21.301-0.22501 0.22324-21.3 21.3-0.14989 0.22325-21.376m-0.0744 43.051v42.827l42.903 0.07512v-42.902h-42.903zm-559.07-43.052 42.751 0.0751 0.2233 21.301 21.301 0.22501 0.2232 21.3 21.301 0.22501v42.752l-21.376 0.22501-0.2233 21.301-21.226 0.22501-0.2233 21.301h-42.826l-0.2268-21.376-21.301-0.22501-0.2232-21.226-21.301-0.22501 0.074-42.827 21.301-0.22501 0.2233-21.3 21.301-0.14989 0.2232-21.376m-0.074 43.051v42.827l42.826 0.07512 0.074-42.902h-42.901z" fill="#c0c0c0"/>
<path id="path4216" d="m-719.47-88.761h42.903v42.902l-42.903-0.07512v-42.827zm-559.15 0h42.901l-0.074 42.902-42.826-0.07512v-42.827zm537.77-64.427 85.654-0.0751 0.3749 21.226 21.151 0.37504 0.3749 21.076 21.151 0.52504 0.14883 42.676-0.0744 42.977-21.376 0.22501-0.22324 21.301-21.301 0.22501-0.14883 21.301h-85.804l-0.22324-21.376-21.301-0.22501-0.22324-21.301-21.301-0.22501-0.0744-42.902 0.0744-42.751 21.226-0.37501 0.3749-21.151 21.152-0.37504 0.37491-21.151m21.45 21.376-0.22324 21.376-21.3 0.14989-0.22324 21.3-21.301 0.22501-0.0744 42.827 21.376 0.22501 0.22325 21.226 21.225 0.22501 0.22324 21.376h42.827l0.22324-21.301 21.301-0.22501 0.14883-21.301 21.376-0.22501v-42.752l-21.301-0.22501-0.22324-21.3-21.301-0.22501-0.14883-21.301-42.827-0.0751zm-580.61-21.376 85.653-0.0751 0.3749 21.226 21.076 0.37504 0.3749 21.076 21.226 0.52504 0.1488 42.676-0.074 42.977-21.376 0.22501-0.2232 21.301-21.301 0.22501-0.2232 21.301h-85.804l-0.2232-21.376-21.226-0.22501-0.2268-21.301-21.301-0.22501-0.1489-42.902 0.1489-42.751 21.226-0.37501 0.3749-21.151 21.151-0.37504 0.3749-21.151m21.451 21.376-0.2233 21.376-21.301 0.14989-0.2232 21.3-21.301 0.22501-0.075 42.827 21.301 0.22501 0.2232 21.226 21.301 0.22501 0.2232 21.376h42.826l0.2232-21.301 21.226-0.22501 0.2232-21.301 21.376-0.22501v-42.752l-21.301-0.22501-0.2233-21.3-21.301-0.22501-0.2232-21.301-42.751-0.0751z"/>
</g>
</g>
</svg>
