<?xml version="1.0" encoding="UTF-8" standalone="no"?>
<svg id="svg2" xmlns:rdf="http://www.w3.org/1999/02/22-rdf-syntax-ns#" xmlns="http://www.w3.org/2000/svg" height="78.87mm" width="188.12mm" version="1.1" xmlns:cc="http://creativecommons.org/ns#" xmlns:dc="http://purl.org/dc/elements/1.1/" viewBox="0 0 666.55763 279.46201">
<g id="layer1" transform="translate(2205.9 375.78)">
<g id="g4142">
<path id="path1050" d="m-1883.3-354.22 150.35-0.0813 0.2152 21.371 21.29 0.16125 0.215 21.344 21.344 0.16137-0.081 21.317-193.25 0.0537-0.08-64.328zm-172.1-0.0537 150.3 0.0275 0.1075 64.301-193.33 0.0538-0.1613-21.344 21.425-0.21513 0.1612-21.29 21.317-0.18812 0.1881-21.344z" fill="#0ff"/>
<path id="path1084" d="m-1711.4-332.77 21.532 0.0263 0.027 21.478-21.344-0.16137-0.215-21.344zm-386.94 0 21.478 0.0263-0.1612 21.29-21.425 0.21512 0.1075-21.532zm365.43-21.532 21.532 0.0537-0.026 21.478-21.29-0.16125-0.2151-21.371zm-343.92 0.0269h21.478l-0.1881 21.344-21.317 0.18813 0.026-21.532zm21.505-21.505h322.45l-0.026 21.478-150.35 0.0813 0.08 64.328 193.25-0.0538 0.081-21.317 42.93 0.0275 0.2419 21.371 42.796 0.1075 0.215 21.398 42.796 0.1075 0.2152 21.371 21.317 0.21512-0.026 42.796-21.344 0.215-0.2151 21.317-64.328-0.0263-0.2151-21.237-21.156-0.37625-0.3762-21.237-85.645 0.0538-0.3764 21.183-21.183 0.37625-0.1613 21.264h-236.48l-0.2151-21.264-21.156-0.37625-0.3764-21.237-85.645 0.0538-0.3763 21.183-21.183 0.37625-0.1614 21.264-64.408-0.0538-0.2151-21.317-21.317-0.215 0.026-85.833 64.355-0.18825 0.2151-21.317 42.849 0.0275 0.1614 21.344 193.33-0.0537-0.1075-64.301-150.3-0.0275 0.026-21.505z" fill="#d87443"/>
<path id="path1214" d="m-1711.3-182.23 42.93-0.0263 0.026 42.93-42.93 0.0263-0.027-42.93zm-365.59 0 42.93-0.0263 0.026 42.93-42.93 0.0263-0.026-42.93zm344.25-42.93 85.645-0.0538 0.3763 21.237 21.156 0.37625 0.2151 21.237-0.1613 64.516-21.317 0.21513-0.215 21.317-85.806-0.0275-0.215-21.344-21.317-0.21512-0.081-64.435 0.1614-21.264 21.183-0.37625 0.3764-21.183m21.398 21.425-0.054 21.505h-21.452l-0.026 42.876 21.505 0.0538v21.452l42.876 0.0275 0.054-21.505h21.452l0.026-42.876-21.505-0.0537v-21.452l-42.876-0.0275zm-386.99-21.424 85.645-0.0538 0.3763 21.237 21.156 0.37625 0.2151 21.264-0.1613 64.489-21.317 0.21513-0.215 21.317-85.806-0.0275-0.215-21.344-21.317-0.21512-0.081-64.435 0.1613-21.264 21.183-0.37625 0.3763-21.183m21.398 21.425-0.054 21.505h-21.452l-0.026 42.876 21.505 0.0538v21.452l42.876 0.0275 0.054-21.505h21.452l0.026-42.876-21.505-0.0537v-21.452l-42.876-0.0275z"/>
<path id="path1252" d="m-1711.3-139.3 42.93-0.0263-0.054 21.505-42.876-0.0275v-21.452zm-365.59 0 42.93-0.0263-0.054 21.505-42.876-0.0275v-21.452zm408.49-42.957 21.505 0.0537-0.026 42.876h-21.452l-0.026-42.93zm-64.382 0.0269h21.452l0.027 42.93-21.505-0.0538 0.026-42.876zm-301.21-0.0269 21.505 0.0537-0.026 42.876h-21.452l-0.026-42.93zm-64.382 0.0269h21.452l0.026 42.93-21.505-0.0538 0.026-42.876zm387.1-21.505 42.876 0.0275v21.452l-42.93 0.0263 0.054-21.505zm-365.59 0 42.876 0.0275v21.452l-42.93 0.0263 0.054-21.505z" fill="#c0c0c0"/>
</g>
</g>
</svg>
