<?xml version="1.0" encoding="UTF-8" standalone="no"?>
<svg id="svg2" xmlns:rdf="http://www.w3.org/1999/02/22-rdf-syntax-ns#" xmlns="http://www.w3.org/2000/svg" height="78.87mm" width="109.22mm" version="1.1" xmlns:cc="http://creativecommons.org/ns#" xmlns:dc="http://purl.org/dc/elements/1.1/" viewBox="0 0 386.9881 279.46217">
<g id="layer1" transform="translate(2157.3 377.6)">
<g id="g4142">
<path id="path1504" d="m-1942.2-356.04 85.86-0.0806 0.215 21.371 21.317 0.16128-0.054 42.849-107.23 0.0269-0.1075-64.328zm-150.59-0.0538 128.82 0.0269 0.08 64.274-128.76 0.0806-0.1344-64.382z" fill="#0ff"/>
<path id="path1506" d="m-1856.4-356.12 21.532 0.0538v21.478l-21.317-0.16129-0.2149-21.371zm-236.4-21.478 236.42 0.0538-0.027 21.425-85.86 0.0806 0.1075 64.328 107.23-0.0269 0.054-42.849 21.505 0.0269 0.1075 42.849 21.371 0.21506 0.2152 21.29 21.317 0.21507-0.026 85.833h-21.371l-0.2152-21.263-21.156-0.37634-0.3764-21.237-85.645 0.0537-0.3763 21.183-21.183 0.37634-0.1612 21.263h-85.941l-0.2151-21.263-21.156-0.37634-0.3763-21.237-85.645 0.0538-0.3762 21.183-21.183 0.37634-0.1612 21.29-21.425-0.0538 0.026-85.86 21.344-0.21505 0.215-21.29 21.317-0.21506 0.1882-64.328h21.398l0.1344 64.382 128.76-0.0806-0.08-64.274-128.82-0.0269 0.054-21.505z" fill="#ffcf00"/>
<path id="path1614" d="m-1877.8-184.05 42.93-0.0269 0.026 42.93-42.93 0.0269-0.027-42.93zm-215.05 0 42.93-0.0269 0.027 42.93-42.93 0.0269-0.026-42.93zm193.71-42.93 85.645-0.0538 0.3764 21.237 21.156 0.37633 0.2152 21.263-0.1614 64.489-21.317 0.21506-0.2152 21.317-85.806-0.02687-0.215-21.344-21.317-0.21506-0.081-64.435 0.1612-21.263 21.183-0.37634 0.3762-21.183m21.398 21.425-0.054 21.505h-21.452l-0.027 42.876 21.505 0.0537v21.452l42.876 0.0269 0.054-21.505h21.452l0.027-42.876-21.505-0.0537v-21.452l-42.876-0.0269zm-236.45-21.425 85.645-0.0538 0.3763 21.237 21.156 0.37633 0.2151 21.263-0.1614 64.489-21.317 0.21506-0.2151 21.317-85.806-0.02687-0.215-21.344-21.317-0.21506-0.08-64.409 0.1612-21.29 21.183-0.37634 0.3763-21.183m21.398 21.425-0.054 21.505h-21.452l-0.026 42.876 21.505 0.0537v21.452l42.876 0.0269 0.054-21.505h21.452l0.027-42.876-21.505-0.0537v-21.452l-42.876-0.0269z"/>
<path id="path1684" d="m-1877.7-141.12 42.93-0.0269-0.054 21.505-42.876-0.0269v-21.452zm-215.05 0 42.93-0.0269-0.054 21.505-42.876-0.0269v-21.452zm257.96-42.957 21.505 0.0537-0.027 42.876h-21.452l-0.026-42.93zm-64.382 0.0269h21.452l0.027 42.93-21.505-0.0537 0.027-42.876zm-150.67-0.0269 21.505 0.0537-0.027 42.876h-21.452l-0.028-42.93zm-64.382 0.0269h21.452l0.026 42.93-21.505-0.0537 0.026-42.876zm236.56-21.505 42.876 0.0269v21.452l-42.93 0.0269 0.054-21.505zm-215.05 0 42.876 0.0269v21.452l-42.93 0.0269 0.054-21.505z" fill="#c0c0c0"/>
</g>
</g>
</svg>
