<svg width="606" height="264" viewBox="0 0 606 264" fill="none" xmlns="http://www.w3.org/2000/svg">
<g clip-path="url(#clip0_1_13)" filter="url(#filter0_d_1_13)">
<path d="M324 64V85.3333H345.333V106.667H366.667V128H345.333H324H302.667H281.333H260V106.667V85.3333V64H281.333H302.667H324ZM238.667 64V85.3333V106.667V128H217.333H196H174.667H153.333V106.667V85.3333H174.667V64H196H217.333H238.667ZM494.667 170.667V192H516V213.333V234.667H494.667V256H473.333H452V234.667H430.667V213.333V192H452V170.667H473.333H494.667ZM132 170.667V192H153.333V213.333V234.667H132V256H110.667H89.3334V234.667H68.0001V213.333V192H89.3334V170.667H110.667H132Z" fill="#696A6A"/>
<path d="M345.333 42.6667V64H324H302.667H281.333H260H238.667H217.333H196H174.667H153.333V42.6667H174.667H196H217.333H238.667H260H281.333H302.667H324H345.333ZM153.333 64V85.3334H132V64H153.333ZM132 85.3334V106.667H110.667V85.3334H132ZM110.667 106.667V128V149.333H132V170.667H110.667H89.3334V149.333H68.0001H46.6667V128H68.0001H89.3334V106.667H110.667ZM46.6667 149.333V170.667H25.3334V149.333H46.6667ZM89.3334 170.667V192H68.0001V170.667H89.3334ZM68.0001 192V213.333H46.6667H25.3334V192H46.6667H68.0001ZM132 170.667H153.333V192H132V170.667ZM153.333 192H174.667H196H217.333H238.667H260H281.333H302.667H324H345.333H366.667H388V170.667V149.333V128V106.667H409.333H430.667H452V128H430.667H409.333V149.333V170.667V192H430.667V213.333H409.333H388H366.667H345.333H324H302.667H281.333H260H238.667H217.333H196H174.667H153.333V192ZM430.667 192V170.667H452V192H430.667ZM452 170.667V149.333V128H473.333H494.667H516H537.333V149.333H516H494.667V170.667H473.333H452ZM494.667 170.667H516V192H494.667V170.667ZM516 192H537.333H558.667H580V213.333H558.667H537.333H516V192ZM537.333 149.333H558.667V170.667H537.333V149.333ZM388 106.667H366.667V85.3334H388V106.667ZM366.667 85.3334H345.333V64H366.667V85.3334Z" fill="#222034"/>
<path d="M260 21.3333V42.6666H238.667V21.3333H260ZM580 170.667V192H558.667V170.667H580ZM46.6667 170.667V192H25.3334V170.667H46.6667Z" fill="#D95763"/>
<path d="M260 0V21.3333H238.667V0H260ZM238.667 21.3333V42.6667H217.333V21.3333H238.667ZM580 149.333V170.667H558.667V149.333H580ZM580 170.667H601.333V192H580V170.667ZM25.3334 170.667V192H4.00006V170.667H25.3334Z" fill="#FBF236"/>
<path d="M281.333 21.3342H260V42.6676H281.333V21.3342Z" fill="#5B6EE1"/>
<path d="M281.333 0V21.3333H260V0H281.333ZM281.333 21.3333H302.667V42.6667H281.333V21.3333Z" fill="#5FCDE4"/>
<path d="M452 128V149.333V170.667H430.667V192H409.333V170.667V149.333V128H430.667H452ZM537.333 149.333V170.667H558.667V192H537.333H516V170.667H494.667V149.333H516H537.333ZM89.3334 149.333V170.667H68V192H46.6667V170.667V149.333H68H89.3334ZM388 170.667V192H366.667H345.333H324H302.667H281.333H260H238.667H217.333H196H174.667H153.333V170.667H174.667H196H217.333H238.667H260H281.333H302.667H324H345.333H366.667H388Z" fill="#323C39"/>
<path d="M345.333 64V85.3333H324V64H345.333ZM345.333 85.3333H366.667V106.667H345.333V85.3333ZM366.667 106.667H388V128V149.333V170.667H366.667H345.333H324H302.667H281.333H260H238.667H217.333H196H174.667H153.333H132V149.333H110.667V128V106.667H132V85.3333H153.333V106.667V128H174.667H196H217.333H238.667V106.667V85.3333V64H260V85.3333V106.667V128H281.333H302.667H324H345.333H366.667V106.667ZM153.333 85.3333V64H174.667V85.3333H153.333Z" fill="white"/>
</g>
<defs>
<filter id="filter0_d_1_13" x="0" y="0" width="605.333" height="264" filterUnits="userSpaceOnUse" color-interpolation-filters="sRGB">
<feFlood flood-opacity="0" result="BackgroundImageFix"/>
<feColorMatrix in="SourceAlpha" type="matrix" values="0 0 0 0 0 0 0 0 0 0 0 0 0 0 0 0 0 0 127 0" result="hardAlpha"/>
<feOffset dy="4"/>
<feGaussianBlur stdDeviation="2"/>
<feComposite in2="hardAlpha" operator="out"/>
<feColorMatrix type="matrix" values="0 0 0 0 0 0 0 0 0 0 0 0 0 0 0 0 0 0 0.25 0"/>
<feBlend mode="normal" in2="BackgroundImageFix" result="effect1_dropShadow_1_13"/>
<feBlend mode="normal" in="SourceGraphic" in2="effect1_dropShadow_1_13" result="shape"/>
</filter>
<clipPath id="clip0_1_13">
<rect width="597.333" height="256" fill="white" transform="matrix(-1 0 0 1 601.333 0)"/>
</clipPath>
</defs>
</svg>
