<svg width="482" height="229" viewBox="0 0 482 229" fill="none" xmlns="http://www.w3.org/2000/svg">
<g clip-path="url(#clip0_1_40)">
<rect x="44" y="46" width="324" height="26" fill="#00D7D7"/>
<rect x="69" y="15" width="275" height="31" fill="#00D7D7"/>
<path d="M321.044 137.542H389.916L389.858 206.327L321.13 206.357L321.044 137.542ZM344.126 160.538L344.039 183.333L366.834 183.418L366.921 160.623L344.126 160.538ZM68.7216 137.541H137.594L137.536 206.327L68.8081 206.356L68.7216 137.541ZM91.8034 160.537L91.7172 183.332L114.512 183.417L114.598 160.622L91.8034 160.537ZM343.923 22.9098L366.89 22.9671L366.92 45.8764L344.151 45.7041L343.923 22.9098ZM45.8956 22.9385H68.8047L68.6039 45.7046L45.7802 45.9054L45.8956 22.9385ZM68.8336 0.000585918L343.982 0.0286449L343.923 22.9098L252.343 22.9953L252.373 68.6706L366.833 68.6425L366.92 45.8764L389.801 45.9057L390.03 68.7007L435.678 68.8153L435.907 91.6391L481.583 91.7537L481.526 160.454L412.883 160.426L412.653 137.689L389.916 137.546L389.744 114.722L321.188 114.836L321.044 137.545L298.278 137.717L298.077 160.455H160.567L160.338 137.688L137.601 137.545L137.428 114.721L68.8719 114.836L68.7284 137.544L45.9622 137.717L45.7617 160.483L22.9667 160.425L22.7375 137.659L0 137.43L0.0575501 68.8443L22.7951 68.6149L23.0245 45.8776L45.7802 45.9054L45.9625 68.6718L114.548 68.5571L114.52 22.9672L68.8047 22.9385L68.8438 0M137.659 22.9379L137.631 68.6707L229.24 68.7001L229.268 22.9672L137.659 22.9379Z" fill="#00FF57"/>
<path d="M68.8047 22.9385L68.6039 45.7046L45.7802 45.9054L45.9625 68.6718L114.548 68.5571L114.52 22.9672L68.8047 22.9385Z" fill="#00D7D7"/>
<path d="M137.659 22.9379L137.631 68.6707L229.24 68.7001L229.268 22.9672L137.659 22.9379Z" fill="#00D7D7"/>
<path d="M366.92 45.8764L344.151 45.7041L343.923 22.9098L252.343 22.9953L252.373 68.6706L366.833 68.6425L366.92 45.8764Z" fill="#00D7D7"/>
<path d="M321.376 206.45L390.104 206.421L390.047 229.359L321.375 229.274V206.45L321.376 206.45ZM69.0538 206.45L137.782 206.421L137.724 229.359L69.0527 229.274V206.45L69.0538 206.45ZM344.372 160.631L367.167 160.716L367.081 183.511L344.286 183.426L344.372 160.631ZM92.0504 160.631L114.845 160.716L114.759 183.511L91.9639 183.426L92.0504 160.631ZM390.163 137.636L412.9 137.779L413.13 160.516L413.015 206.422H390.106L390.163 137.636ZM298.524 137.808L321.291 137.636L321.376 206.45L298.439 206.393L298.324 160.545L298.524 137.808ZM137.836 137.636L160.574 137.779L160.803 160.545L160.688 206.422H137.779L137.836 137.636ZM46.198 137.808L68.9642 137.636L69.0507 206.45L46.1126 206.393L45.998 160.574L46.198 137.808ZM321.431 114.926L389.988 114.812L390.16 137.635H321.287L321.431 114.926ZM69.1092 114.926L137.666 114.812L137.838 137.635H68.9655L69.1092 114.926Z" fill="black"/>
</g>
<defs>
<clipPath id="clip0_1_40">
<rect width="482" height="229" fill="white"/>
</clipPath>
</defs>
</svg>
