<svg width="482" height="230" viewBox="0 0 482 230" fill="none" xmlns="http://www.w3.org/2000/svg">
<g clip-path="url(#clip0_1_24)">
<rect x="92" y="23" width="115" height="46" fill="#00FFFF"/>
<rect x="229" y="45.8" width="116" height="23.2" fill="#00FFFF"/>
<rect x="229" y="23" width="70" height="23" fill="#00FFFF"/>
<path d="M321.287 137.653H390.162L390.104 206.442L321.374 206.471L321.287 137.653ZM344.37 160.65L344.283 183.446L367.079 183.531L367.166 160.736L344.37 160.65ZM68.9561 137.653H137.831L137.773 206.441L69.0426 206.471L68.9561 137.653ZM92.039 160.65L91.9525 183.446L114.748 183.531L114.835 160.735L92.039 160.65ZM298.29 23.0177L344.197 23.0749L344.225 45.9571L298.519 45.8424L298.29 23.0177ZM92.0069 23.0463L137.856 23.0182L137.656 45.8428L91.8926 45.9862L92.0072 23.0475L92.0069 23.0463ZM137.885 0.107605L298.344 0.135665L298.287 23.0178L229.641 23.1612L229.669 68.7815L344.133 68.7534L344.218 45.9577L367.1 46.0151L367.33 68.8108L435.918 69.0115L436.147 91.7208L458.856 91.9503L459.086 114.66L481.824 114.889L481.796 160.567L413.122 160.539L412.893 137.801L390.155 137.657L389.982 114.833L321.424 114.947L321.28 137.657L298.513 137.829L298.313 160.567H160.798L160.568 137.8L137.83 137.657L137.658 114.832L69.0991 114.947L68.9559 137.656L46.1889 137.828L45.9882 160.566L0.225098 160.538L0.28265 91.8931L23.0207 91.6637L23.2501 68.9256L68.8991 68.8109L69.1285 45.9864H91.8955L92.0676 68.7821L206.5 68.7541V23.0762L137.854 23.0188L137.882 0.108907L137.885 0.107605Z" fill="#C0C0C0"/>
<path d="M321.394 206.475L390.124 206.446L390.067 229.384L321.393 229.299V206.474L321.394 206.475ZM69.0626 206.475L137.793 206.446L137.736 229.384L69.0616 229.299V206.474L69.0626 206.475ZM344.391 160.654L367.187 160.739L367.1 183.535L344.305 183.45L344.391 160.654ZM92.06 160.654L114.856 160.739L114.769 183.535L91.9736 183.45L92.06 160.654ZM390.183 137.658L412.921 137.801L413.15 160.539L413.036 206.447H390.126L390.183 137.658ZM298.541 137.83L321.308 137.658L321.394 206.475L298.456 206.417L298.341 160.568L298.541 137.83ZM137.848 137.658L160.586 137.801L160.815 160.568L160.7 206.447H137.791L137.848 137.658ZM46.2061 137.83L68.973 137.658L69.0595 206.475L46.1207 206.417L46.0061 160.568L46.2061 137.83ZM321.449 114.948L390.008 114.833L390.18 137.658H321.305L321.449 114.948ZM69.1181 114.948L137.677 114.833L137.849 137.658H68.9744L69.1181 114.948Z" fill="black"/>
</g>
<defs>
<clipPath id="clip0_1_24">
<rect width="481.89" height="229.493" fill="white"/>
</clipPath>
</defs>
</svg>
