<svg width="528" height="299" viewBox="0 0 528 299" fill="none" xmlns="http://www.w3.org/2000/svg">
<path d="M229.435 23.0847L343.928 22.9126L344.158 45.7078L366.895 45.8798L366.868 91.5279L229.527 91.6132L229.441 23.0846L229.435 23.0847ZM22.9009 22.9413L206.182 22.9706L206.267 91.4992L23.0501 91.6139L22.9069 22.9413H22.9009Z" fill="#00FFFF"/>
<path d="M343.886 22.914L366.852 22.9714V45.8807L344.115 45.7087L343.886 22.914ZM22.9221 0.00463867L343.918 0.0339674L343.89 22.9156L229.396 23.0877L229.482 91.6163L366.823 91.531L366.85 45.883L389.789 45.911L389.903 91.6444L504.429 91.759L504.687 114.554L527.424 114.784L527.397 206.337H481.663L481.434 183.657L458.868 183.255L458.466 160.604L367.114 160.661L366.712 183.256L344.118 183.658L343.945 206.338L183.458 206.31L183.229 183.658L160.663 183.257L160.262 160.606L68.9091 160.663L68.5078 183.258L45.913 183.659L45.7411 206.339L-0.0498047 206.311L0.0353497 22.9448H22.8596L23.0028 91.6174L206.22 91.5027L206.135 22.9741L22.8536 22.9448L22.9111 0.0066243L22.9221 0.00463867Z" fill="#3300FF"/>
<path d="M389.964 206.451L435.756 206.422L435.785 252.213L389.994 252.242L389.967 206.451H389.964ZM91.7632 206.451L137.554 206.422L137.582 252.213L91.7909 252.242L91.7632 206.451ZM367.202 160.66L458.555 160.603L458.956 183.254L481.522 183.656L481.752 206.336L481.58 275.122L458.842 275.352L458.613 298.089L367.088 298.061L366.859 275.295L344.121 275.065L344.035 206.335L344.207 183.655L366.802 183.254L367.203 160.659M390.027 183.512L389.969 206.45H367.088L367.06 252.183L389.998 252.241V275.122L435.732 275.152L435.789 252.214H458.671L458.699 206.48L435.76 206.423V183.541L390.027 183.512ZM68.9995 160.659L160.352 160.602L160.754 183.253L183.319 183.654L183.549 206.306L183.377 275.121L160.639 275.35L160.41 298.088L68.8854 298.06L68.656 275.294L45.9185 275.064L45.832 206.334L46.0042 183.654L68.5987 183.253L69.0003 160.658M91.8242 183.511L91.7667 206.449H68.8852L68.8573 252.182L91.7955 252.24V275.121L137.529 275.151L137.587 252.212H160.468L160.497 206.479L137.559 206.422V183.54L91.8254 183.511L91.8242 183.511Z" fill="black"/>
<path d="M389.965 252.242L435.756 252.213L435.698 275.151L389.965 275.122V252.24V252.242ZM91.7633 252.242L137.554 252.213L137.497 275.151L91.7633 275.122V252.24V252.242ZM435.724 206.422L458.662 206.48L458.634 252.213H435.752L435.724 206.422ZM367.051 206.451H389.933L389.96 252.242L367.022 252.185L367.05 206.451L367.051 206.451ZM137.52 206.422L160.458 206.48L160.429 252.213H137.548L137.52 206.422ZM68.8475 206.451H91.7292L91.7569 252.242L68.8186 252.185L68.8465 206.451L68.8475 206.451ZM389.992 183.513L435.726 183.542V206.423L389.935 206.452L389.992 183.514V183.513ZM91.791 183.513L137.524 183.542V206.423L91.7335 206.452L91.791 183.514V183.513Z" fill="#C0C0C0"/>
</svg>
